<mxfile host="app.diagrams.net" modified="2020-10-23T08:55:20.239Z" agent="5.0 (Windows NT 10.0; Win64; x64) AppleWebKit/537.36 (KHTML, like Gecko) Chrome/86.0.4240.75 Safari/537.36" etag="YT3faE4uB07O2LYQ_6sO" version="13.8.1" type="github">
  <diagram name="Page-1" id="efa7a0a1-bf9b-a30e-e6df-94a7791c09e9">
    <mxGraphModel dx="1038" dy="580" grid="1" gridSize="10" guides="1" tooltips="1" connect="1" arrows="1" fold="1" page="1" pageScale="1" pageWidth="826" pageHeight="1169" background="#ffffff" math="0" shadow="0">
      <root>
        <mxCell id="0" />
        <mxCell id="1" parent="0" />
        <mxCell id="wr13zBOJDpBY8zEouREP-114" value="节点配置" style="html=1;" vertex="1" parent="1">
          <mxGeometry x="100" y="90" width="110" height="50" as="geometry" />
        </mxCell>
        <mxCell id="wr13zBOJDpBY8zEouREP-115" value="节点过滤条件" style="html=1;" vertex="1" parent="1">
          <mxGeometry x="303" y="90" width="110" height="50" as="geometry" />
        </mxCell>
        <mxCell id="wr13zBOJDpBY8zEouREP-116" value="节点条件对象" style="html=1;" vertex="1" parent="1">
          <mxGeometry x="100" y="220" width="110" height="50" as="geometry" />
        </mxCell>
        <mxCell id="wr13zBOJDpBY8zEouREP-117" value="节点配置信息" style="html=1;" vertex="1" parent="1">
          <mxGeometry x="304" y="220" width="110" height="50" as="geometry" />
        </mxCell>
      </root>
    </mxGraphModel>
  </diagram>
</mxfile>
